<mxfile host="app.diagrams.net" agent="Mozilla/5.0 (Windows NT 10.0; Win64; x64) AppleWebKit/537.36 (KHTML, like Gecko) Chrome/136.0.0.0 Safari/537.36" version="27.0.6">
  <diagram name="페이지-1" id="snakraEbUamg-9bQZh6m">
    <mxGraphModel dx="2066" dy="1111" grid="1" gridSize="10" guides="1" tooltips="1" connect="1" arrows="1" fold="1" page="1" pageScale="1" pageWidth="827" pageHeight="1169" math="0" shadow="0">
      <root>
        <mxCell id="0" />
        <mxCell id="1" parent="0" />
        <mxCell id="x9wjb2KHrmEYlh3jh8Zj-3" style="edgeStyle=orthogonalEdgeStyle;rounded=0;orthogonalLoop=1;jettySize=auto;html=1;exitX=0.5;exitY=1;exitDx=0;exitDy=0;" edge="1" parent="1" source="x9wjb2KHrmEYlh3jh8Zj-1">
          <mxGeometry relative="1" as="geometry">
            <mxPoint x="140" y="513" as="targetPoint" />
          </mxGeometry>
        </mxCell>
        <mxCell id="x9wjb2KHrmEYlh3jh8Zj-1" value="Sensor" style="rounded=0;whiteSpace=wrap;html=1;" vertex="1" parent="1">
          <mxGeometry x="80" y="80" width="120" height="60" as="geometry" />
        </mxCell>
        <mxCell id="x9wjb2KHrmEYlh3jh8Zj-4" style="edgeStyle=orthogonalEdgeStyle;rounded=0;orthogonalLoop=1;jettySize=auto;html=1;exitX=0.5;exitY=1;exitDx=0;exitDy=0;" edge="1" parent="1" source="x9wjb2KHrmEYlh3jh8Zj-2">
          <mxGeometry relative="1" as="geometry">
            <mxPoint x="340" y="520" as="targetPoint" />
          </mxGeometry>
        </mxCell>
        <mxCell id="x9wjb2KHrmEYlh3jh8Zj-2" value="HAP" style="rounded=0;whiteSpace=wrap;html=1;" vertex="1" parent="1">
          <mxGeometry x="280" y="80" width="120" height="60" as="geometry" />
        </mxCell>
        <mxCell id="x9wjb2KHrmEYlh3jh8Zj-6" value="True" style="endArrow=classic;html=1;rounded=0;" edge="1" parent="1">
          <mxGeometry width="50" height="50" relative="1" as="geometry">
            <mxPoint x="140" y="200" as="sourcePoint" />
            <mxPoint x="340" y="200" as="targetPoint" />
          </mxGeometry>
        </mxCell>
        <mxCell id="x9wjb2KHrmEYlh3jh8Zj-7" value="60 sec" style="shape=curlyBracket;whiteSpace=wrap;html=1;rounded=1;labelPosition=left;verticalLabelPosition=middle;align=right;verticalAlign=middle;" vertex="1" parent="1">
          <mxGeometry x="110" y="200" width="20" height="120" as="geometry" />
        </mxCell>
        <mxCell id="x9wjb2KHrmEYlh3jh8Zj-8" value="True" style="endArrow=block;html=1;rounded=0;endFill=0;" edge="1" parent="1">
          <mxGeometry width="50" height="50" relative="1" as="geometry">
            <mxPoint x="140" y="227" as="sourcePoint" />
            <mxPoint x="200" y="227" as="targetPoint" />
          </mxGeometry>
        </mxCell>
        <mxCell id="x9wjb2KHrmEYlh3jh8Zj-9" value="True" style="endArrow=block;html=1;rounded=0;strokeColor=default;align=center;verticalAlign=middle;fontFamily=Helvetica;fontSize=11;fontColor=default;labelBackgroundColor=default;endFill=0;" edge="1" parent="1">
          <mxGeometry width="50" height="50" relative="1" as="geometry">
            <mxPoint x="140" y="257" as="sourcePoint" />
            <mxPoint x="200" y="257" as="targetPoint" />
          </mxGeometry>
        </mxCell>
        <mxCell id="x9wjb2KHrmEYlh3jh8Zj-10" value="True" style="endArrow=block;html=1;rounded=0;strokeColor=default;align=center;verticalAlign=middle;fontFamily=Helvetica;fontSize=11;fontColor=default;labelBackgroundColor=default;endFill=0;" edge="1" parent="1">
          <mxGeometry width="50" height="50" relative="1" as="geometry">
            <mxPoint x="140" y="287" as="sourcePoint" />
            <mxPoint x="200" y="287" as="targetPoint" />
          </mxGeometry>
        </mxCell>
        <mxCell id="x9wjb2KHrmEYlh3jh8Zj-11" value="True" style="endArrow=classic;html=1;rounded=0;" edge="1" parent="1">
          <mxGeometry width="50" height="50" relative="1" as="geometry">
            <mxPoint x="140" y="320" as="sourcePoint" />
            <mxPoint x="340" y="320" as="targetPoint" />
          </mxGeometry>
        </mxCell>
        <mxCell id="x9wjb2KHrmEYlh3jh8Zj-12" value="60 sec" style="shape=curlyBracket;whiteSpace=wrap;html=1;rounded=1;labelPosition=left;verticalLabelPosition=middle;align=right;verticalAlign=middle;" vertex="1" parent="1">
          <mxGeometry x="110" y="320" width="20" height="120" as="geometry" />
        </mxCell>
        <mxCell id="x9wjb2KHrmEYlh3jh8Zj-13" value="True" style="endArrow=block;html=1;rounded=0;strokeColor=default;align=center;verticalAlign=middle;fontFamily=Helvetica;fontSize=11;fontColor=default;labelBackgroundColor=default;endFill=0;" edge="1" parent="1">
          <mxGeometry width="50" height="50" relative="1" as="geometry">
            <mxPoint x="140" y="348" as="sourcePoint" />
            <mxPoint x="200" y="348" as="targetPoint" />
          </mxGeometry>
        </mxCell>
        <mxCell id="x9wjb2KHrmEYlh3jh8Zj-14" value="True" style="endArrow=block;html=1;rounded=0;strokeColor=default;align=center;verticalAlign=middle;fontFamily=Helvetica;fontSize=11;fontColor=default;labelBackgroundColor=default;endFill=0;" edge="1" parent="1">
          <mxGeometry width="50" height="50" relative="1" as="geometry">
            <mxPoint x="140" y="378" as="sourcePoint" />
            <mxPoint x="200" y="378" as="targetPoint" />
          </mxGeometry>
        </mxCell>
        <mxCell id="x9wjb2KHrmEYlh3jh8Zj-15" value="True" style="endArrow=block;html=1;rounded=0;strokeColor=default;align=center;verticalAlign=middle;fontFamily=Helvetica;fontSize=11;fontColor=default;labelBackgroundColor=default;endFill=0;" edge="1" parent="1">
          <mxGeometry width="50" height="50" relative="1" as="geometry">
            <mxPoint x="140" y="408" as="sourcePoint" />
            <mxPoint x="200" y="408" as="targetPoint" />
          </mxGeometry>
        </mxCell>
        <mxCell id="x9wjb2KHrmEYlh3jh8Zj-17" style="edgeStyle=orthogonalEdgeStyle;rounded=0;orthogonalLoop=1;jettySize=auto;html=1;exitX=0.5;exitY=1;exitDx=0;exitDy=0;" edge="1" parent="1" source="x9wjb2KHrmEYlh3jh8Zj-18">
          <mxGeometry relative="1" as="geometry">
            <mxPoint x="140" y="993" as="targetPoint" />
          </mxGeometry>
        </mxCell>
        <mxCell id="x9wjb2KHrmEYlh3jh8Zj-18" value="Sensor" style="rounded=0;whiteSpace=wrap;html=1;" vertex="1" parent="1">
          <mxGeometry x="80" y="560" width="120" height="60" as="geometry" />
        </mxCell>
        <mxCell id="x9wjb2KHrmEYlh3jh8Zj-19" style="edgeStyle=orthogonalEdgeStyle;rounded=0;orthogonalLoop=1;jettySize=auto;html=1;exitX=0.5;exitY=1;exitDx=0;exitDy=0;" edge="1" parent="1" source="x9wjb2KHrmEYlh3jh8Zj-20">
          <mxGeometry relative="1" as="geometry">
            <mxPoint x="340" y="1000" as="targetPoint" />
          </mxGeometry>
        </mxCell>
        <mxCell id="x9wjb2KHrmEYlh3jh8Zj-20" value="HAP" style="rounded=0;whiteSpace=wrap;html=1;" vertex="1" parent="1">
          <mxGeometry x="280" y="560" width="120" height="60" as="geometry" />
        </mxCell>
        <mxCell id="x9wjb2KHrmEYlh3jh8Zj-21" value="True" style="endArrow=classic;html=1;rounded=0;" edge="1" parent="1">
          <mxGeometry width="50" height="50" relative="1" as="geometry">
            <mxPoint x="140" y="680" as="sourcePoint" />
            <mxPoint x="340" y="680" as="targetPoint" />
          </mxGeometry>
        </mxCell>
        <mxCell id="x9wjb2KHrmEYlh3jh8Zj-22" value="60 sec" style="shape=curlyBracket;whiteSpace=wrap;html=1;rounded=1;labelPosition=left;verticalLabelPosition=middle;align=right;verticalAlign=middle;" vertex="1" parent="1">
          <mxGeometry x="110" y="680" width="20" height="120" as="geometry" />
        </mxCell>
        <mxCell id="x9wjb2KHrmEYlh3jh8Zj-25" value="True" style="endArrow=block;html=1;rounded=0;strokeColor=default;align=center;verticalAlign=middle;fontFamily=Helvetica;fontSize=11;fontColor=default;labelBackgroundColor=default;endFill=0;" edge="1" parent="1">
          <mxGeometry width="50" height="50" relative="1" as="geometry">
            <mxPoint x="140" y="780" as="sourcePoint" />
            <mxPoint x="200" y="780" as="targetPoint" />
          </mxGeometry>
        </mxCell>
        <mxCell id="x9wjb2KHrmEYlh3jh8Zj-26" value="True" style="endArrow=classic;html=1;rounded=0;" edge="1" parent="1">
          <mxGeometry width="50" height="50" relative="1" as="geometry">
            <mxPoint x="140" y="800" as="sourcePoint" />
            <mxPoint x="340" y="800" as="targetPoint" />
          </mxGeometry>
        </mxCell>
        <mxCell id="x9wjb2KHrmEYlh3jh8Zj-27" value="60 sec" style="shape=curlyBracket;whiteSpace=wrap;html=1;rounded=1;labelPosition=left;verticalLabelPosition=middle;align=right;verticalAlign=middle;" vertex="1" parent="1">
          <mxGeometry x="110" y="800" width="20" height="120" as="geometry" />
        </mxCell>
        <mxCell id="x9wjb2KHrmEYlh3jh8Zj-31" value="True" style="endArrow=classic;html=1;rounded=0;" edge="1" parent="1">
          <mxGeometry width="50" height="50" relative="1" as="geometry">
            <mxPoint x="140" y="440" as="sourcePoint" />
            <mxPoint x="340" y="440" as="targetPoint" />
          </mxGeometry>
        </mxCell>
        <mxCell id="x9wjb2KHrmEYlh3jh8Zj-32" value="False" style="endArrow=classic;html=1;rounded=0;" edge="1" parent="1">
          <mxGeometry width="50" height="50" relative="1" as="geometry">
            <mxPoint x="140" y="920" as="sourcePoint" />
            <mxPoint x="340" y="920" as="targetPoint" />
          </mxGeometry>
        </mxCell>
        <mxCell id="x9wjb2KHrmEYlh3jh8Zj-33" style="edgeStyle=orthogonalEdgeStyle;rounded=0;orthogonalLoop=1;jettySize=auto;html=1;exitX=0.5;exitY=1;exitDx=0;exitDy=0;" edge="1" parent="1" source="x9wjb2KHrmEYlh3jh8Zj-34">
          <mxGeometry relative="1" as="geometry">
            <mxPoint x="540" y="513" as="targetPoint" />
          </mxGeometry>
        </mxCell>
        <mxCell id="x9wjb2KHrmEYlh3jh8Zj-34" value="Sensor" style="rounded=0;whiteSpace=wrap;html=1;" vertex="1" parent="1">
          <mxGeometry x="480" y="80" width="120" height="60" as="geometry" />
        </mxCell>
        <mxCell id="x9wjb2KHrmEYlh3jh8Zj-35" style="edgeStyle=orthogonalEdgeStyle;rounded=0;orthogonalLoop=1;jettySize=auto;html=1;exitX=0.5;exitY=1;exitDx=0;exitDy=0;" edge="1" parent="1" source="x9wjb2KHrmEYlh3jh8Zj-36">
          <mxGeometry relative="1" as="geometry">
            <mxPoint x="740" y="520" as="targetPoint" />
          </mxGeometry>
        </mxCell>
        <mxCell id="x9wjb2KHrmEYlh3jh8Zj-36" value="HAP" style="rounded=0;whiteSpace=wrap;html=1;" vertex="1" parent="1">
          <mxGeometry x="680" y="80" width="120" height="60" as="geometry" />
        </mxCell>
        <mxCell id="x9wjb2KHrmEYlh3jh8Zj-37" value="True" style="endArrow=classic;html=1;rounded=0;" edge="1" parent="1">
          <mxGeometry width="50" height="50" relative="1" as="geometry">
            <mxPoint x="540" y="200" as="sourcePoint" />
            <mxPoint x="740" y="200" as="targetPoint" />
          </mxGeometry>
        </mxCell>
        <mxCell id="x9wjb2KHrmEYlh3jh8Zj-38" value="60 sec" style="shape=curlyBracket;whiteSpace=wrap;html=1;rounded=1;labelPosition=left;verticalLabelPosition=middle;align=right;verticalAlign=middle;" vertex="1" parent="1">
          <mxGeometry x="510" y="200" width="20" height="120" as="geometry" />
        </mxCell>
        <mxCell id="x9wjb2KHrmEYlh3jh8Zj-39" value="True" style="endArrow=block;html=1;rounded=0;endFill=0;" edge="1" parent="1">
          <mxGeometry width="50" height="50" relative="1" as="geometry">
            <mxPoint x="540" y="217" as="sourcePoint" />
            <mxPoint x="600" y="217" as="targetPoint" />
          </mxGeometry>
        </mxCell>
        <mxCell id="x9wjb2KHrmEYlh3jh8Zj-42" value="True" style="endArrow=classic;html=1;rounded=0;" edge="1" parent="1">
          <mxGeometry width="50" height="50" relative="1" as="geometry">
            <mxPoint x="540" y="320" as="sourcePoint" />
            <mxPoint x="740" y="320" as="targetPoint" />
          </mxGeometry>
        </mxCell>
        <mxCell id="x9wjb2KHrmEYlh3jh8Zj-43" value="60 sec" style="shape=curlyBracket;whiteSpace=wrap;html=1;rounded=1;labelPosition=left;verticalLabelPosition=middle;align=right;verticalAlign=middle;" vertex="1" parent="1">
          <mxGeometry x="510" y="320" width="20" height="120" as="geometry" />
        </mxCell>
        <mxCell id="x9wjb2KHrmEYlh3jh8Zj-47" value="False" style="endArrow=classic;html=1;rounded=0;" edge="1" parent="1">
          <mxGeometry width="50" height="50" relative="1" as="geometry">
            <mxPoint x="540" y="440" as="sourcePoint" />
            <mxPoint x="740" y="440" as="targetPoint" />
          </mxGeometry>
        </mxCell>
        <mxCell id="x9wjb2KHrmEYlh3jh8Zj-48" style="edgeStyle=orthogonalEdgeStyle;rounded=0;orthogonalLoop=1;jettySize=auto;html=1;exitX=0.5;exitY=1;exitDx=0;exitDy=0;" edge="1" parent="1" source="x9wjb2KHrmEYlh3jh8Zj-49">
          <mxGeometry relative="1" as="geometry">
            <mxPoint x="540" y="993" as="targetPoint" />
          </mxGeometry>
        </mxCell>
        <mxCell id="x9wjb2KHrmEYlh3jh8Zj-49" value="Sensor" style="rounded=0;whiteSpace=wrap;html=1;" vertex="1" parent="1">
          <mxGeometry x="480" y="560" width="120" height="60" as="geometry" />
        </mxCell>
        <mxCell id="x9wjb2KHrmEYlh3jh8Zj-50" style="edgeStyle=orthogonalEdgeStyle;rounded=0;orthogonalLoop=1;jettySize=auto;html=1;exitX=0.5;exitY=1;exitDx=0;exitDy=0;" edge="1" parent="1" source="x9wjb2KHrmEYlh3jh8Zj-51">
          <mxGeometry relative="1" as="geometry">
            <mxPoint x="740" y="1000" as="targetPoint" />
          </mxGeometry>
        </mxCell>
        <mxCell id="x9wjb2KHrmEYlh3jh8Zj-51" value="HAP" style="rounded=0;whiteSpace=wrap;html=1;" vertex="1" parent="1">
          <mxGeometry x="680" y="560" width="120" height="60" as="geometry" />
        </mxCell>
        <mxCell id="x9wjb2KHrmEYlh3jh8Zj-52" value="True" style="endArrow=classic;html=1;rounded=0;" edge="1" parent="1">
          <mxGeometry width="50" height="50" relative="1" as="geometry">
            <mxPoint x="540" y="680" as="sourcePoint" />
            <mxPoint x="740" y="680" as="targetPoint" />
          </mxGeometry>
        </mxCell>
        <mxCell id="x9wjb2KHrmEYlh3jh8Zj-53" value="60 sec" style="shape=curlyBracket;whiteSpace=wrap;html=1;rounded=1;labelPosition=left;verticalLabelPosition=middle;align=right;verticalAlign=middle;" vertex="1" parent="1">
          <mxGeometry x="510" y="680" width="20" height="120" as="geometry" />
        </mxCell>
        <mxCell id="x9wjb2KHrmEYlh3jh8Zj-54" value="True" style="endArrow=block;html=1;rounded=0;endFill=0;" edge="1" parent="1">
          <mxGeometry width="50" height="50" relative="1" as="geometry">
            <mxPoint x="540" y="720" as="sourcePoint" />
            <mxPoint x="600" y="720" as="targetPoint" />
          </mxGeometry>
        </mxCell>
        <mxCell id="x9wjb2KHrmEYlh3jh8Zj-55" value="True" style="endArrow=block;html=1;rounded=0;strokeColor=default;align=center;verticalAlign=middle;fontFamily=Helvetica;fontSize=11;fontColor=default;labelBackgroundColor=default;endFill=0;" edge="1" parent="1">
          <mxGeometry width="50" height="50" relative="1" as="geometry">
            <mxPoint x="540" y="750" as="sourcePoint" />
            <mxPoint x="600" y="750" as="targetPoint" />
          </mxGeometry>
        </mxCell>
        <mxCell id="x9wjb2KHrmEYlh3jh8Zj-56" value="True" style="endArrow=block;html=1;rounded=0;strokeColor=default;align=center;verticalAlign=middle;fontFamily=Helvetica;fontSize=11;fontColor=default;labelBackgroundColor=default;endFill=0;" edge="1" parent="1">
          <mxGeometry width="50" height="50" relative="1" as="geometry">
            <mxPoint x="540" y="780" as="sourcePoint" />
            <mxPoint x="600" y="780" as="targetPoint" />
          </mxGeometry>
        </mxCell>
        <mxCell id="x9wjb2KHrmEYlh3jh8Zj-57" value="True" style="endArrow=classic;html=1;rounded=0;" edge="1" parent="1">
          <mxGeometry width="50" height="50" relative="1" as="geometry">
            <mxPoint x="540" y="800" as="sourcePoint" />
            <mxPoint x="740" y="800" as="targetPoint" />
          </mxGeometry>
        </mxCell>
        <mxCell id="x9wjb2KHrmEYlh3jh8Zj-58" value="60 sec" style="shape=curlyBracket;whiteSpace=wrap;html=1;rounded=1;labelPosition=left;verticalLabelPosition=middle;align=right;verticalAlign=middle;" vertex="1" parent="1">
          <mxGeometry x="510" y="800" width="20" height="120" as="geometry" />
        </mxCell>
        <mxCell id="x9wjb2KHrmEYlh3jh8Zj-59" value="False" style="endArrow=classic;html=1;rounded=0;" edge="1" parent="1">
          <mxGeometry width="50" height="50" relative="1" as="geometry">
            <mxPoint x="540" y="920" as="sourcePoint" />
            <mxPoint x="740" y="920" as="targetPoint" />
          </mxGeometry>
        </mxCell>
      </root>
    </mxGraphModel>
  </diagram>
</mxfile>
